<?xml version="1.0" standalone="no"?>
<!DOCTYPE svg PUBLIC "-//W3C//DTD SVG 20010904//EN"
 "http://www.w3.org/TR/2001/REC-SVG-20010904/DTD/svg10.dtd">
<svg version="1.0" xmlns="http://www.w3.org/2000/svg"
 width="785.000000pt" height="785.000000pt" viewBox="0 0 785.000000 785.000000"
 preserveAspectRatio="xMidYMid meet">
<metadata>
Created by potrace 1.14, written by Peter Selinger 2001-2017
</metadata>
<g transform="translate(0.000000,785.000000) scale(0.100000,-0.100000)"
fill="#000000" stroke="none">
<path d="M2520 7642 c-32 -33 -34 -42 -35 -182 l0 -85 -177 -5 -178 -5 -27
-28 c-26 -25 -28 -34 -31 -122 l-4 -95 -225 0 -225 0 -29 -29 c-27 -28 -29
-34 -29 -114 0 -47 -3 -92 -6 -101 -5 -13 -27 -16 -136 -16 -197 0 -218 -18
-218 -190 l0 -100 -121 0 -121 0 -39 -39 -39 -39 0 -241 0 -241 -111 0 c-109
0 -111 0 -140 -29 -29 -29 -29 -31 -29 -145 l0 -116 -115 0 -116 0 -42 -39
-42 -40 -3 -440 -3 -441 -72 0 c-85 0 -125 -19 -150 -73 -15 -32 -17 -102 -17
-741 0 -760 0 -754 51 -790 17 -12 46 -16 106 -16 l83 0 0 -125 0 -125 -86 0
c-84 0 -87 -1 -120 -34 -31 -31 -34 -39 -34 -96 0 -97 3 -100 120 -100 l100 0
0 65 c0 37 4 65 10 65 7 0 10 -157 10 -450 0 -481 0 -480 50 -525 19 -17 40
-21 144 -25 l121 -5 5 -88 c5 -82 7 -91 33 -113 26 -22 36 -24 138 -24 l109 0
0 -111 c0 -109 0 -111 29 -140 l29 -29 690 0 c379 0 710 -3 735 -6 l45 -6 1
-125 c1 -71 7 -132 13 -142 27 -44 31 -45 493 -45 242 0 491 -1 553 -3 l112
-4 0 -85 c0 -95 16 -141 53 -148 12 -3 68 -7 125 -9 56 -2 105 -7 109 -11 4
-4 9 -53 11 -109 6 -139 3 -137 156 -137 94 0 127 4 144 16 38 27 52 67 52
154 l0 80 163 -2 162 -3 5 -97 c4 -85 8 -100 29 -122 l24 -26 243 0 c211 0
243 -2 248 -16 3 -9 6 -54 6 -101 0 -80 2 -86 29 -114 l29 -29 282 0 282 0 39
39 39 39 0 91 c0 84 1 91 20 91 19 0 20 -7 20 -101 0 -98 1 -101 29 -130 l29
-29 246 0 246 0 38 34 37 34 3 96 4 96 232 0 231 0 27 25 c33 31 37 46 40 150
l3 80 107 5 c92 4 111 8 128 26 28 28 39 81 33 154 l-6 60 49 0 c78 0 120 16
143 54 20 31 21 48 21 295 l0 261 121 0 121 0 39 39 c38 38 39 40 39 110 0
136 -44 170 -217 171 l-103 0 0 114 0 114 130 4 c126 3 130 4 157 31 26 26 28
32 28 118 0 90 0 91 -33 120 -32 29 -33 29 -157 29 l-125 0 -2 182 c-3 175 -4
183 -23 183 -14 0 -21 8 -23 27 -3 22 1 28 16 28 14 0 21 9 26 31 3 17 6 499
6 1070 l0 1039 116 0 c128 0 158 10 188 60 22 37 22 169 1 211 -29 56 -66 69
-194 69 l-114 0 6 -97 7 -98 -1210 0 c-961 0 -1210 -3 -1210 -12 0 -10 -87
-13 -400 -13 l-399 0 -3 117 -3 118 -20 -22 -21 -22 -2 332 c-3 301 -5 334
-21 357 -29 40 -73 50 -193 44 l-108 -6 0 92 c0 75 -4 97 -20 120 -34 47 -59
52 -285 48 l-207 -3 -33 -37 c-34 -36 -39 -52 -50 -161 -4 -31 -10 -55 -15
-52 -4 3 -6 -5 -3 -16 6 -21 4 -22 -61 -17 -36 3 -72 11 -80 17 -18 15 -53 1
-85 -32 -20 -22 -24 -39 -29 -119 -2 -51 -10 -96 -16 -100 -6 -4 -32 -8 -58
-8 -28 0 -48 -5 -48 -11 0 -7 19 -9 55 -5 30 3 57 1 60 -5 10 -16 -103 -10
-130 7 -21 14 -26 14 -53 0 -38 -20 -52 -60 -52 -152 0 -41 -4 -74 -8 -74 -5
0 -9 -6 -10 -12 -1 -16 -41 -199 -46 -214 -2 -6 -19 -14 -37 -18 -41 -8 -57
-21 -74 -63 -8 -19 -19 -32 -24 -28 -15 8 -40 -36 -50 -86 -5 -24 -10 -35 -11
-24 -2 17 -3 16 -10 -5 -12 -39 -11 -118 1 -122 8 -3 12 -45 14 -123 1 -66 5
-208 10 -316 l8 -195 48 -17 c26 -10 54 -23 61 -30 7 -7 32 -25 56 -40 30 -19
44 -37 49 -58 3 -18 9 -26 13 -19 4 6 10 -26 13 -72 11 -136 9 -169 -10 -184
-16 -12 -16 -13 -1 -14 9 0 19 -6 21 -12 4 -10 6 -10 6 0 1 9 32 12 121 12
l120 0 0 -100 0 -100 -95 -2 c-52 -1 -105 -2 -117 -2 -22 -1 -23 4 -29 89 l-5
90 -2 -92 -2 -93 -119 0 c-99 0 -120 -3 -125 -16 -3 -9 -6 -62 -6 -118 l0
-103 -157 -8 c-87 -4 -189 -8 -228 -9 l-70 -1 -5 220 -6 220 -2 -217 -2 -218
-110 0 -110 0 2 233 3 232 103 -3 c69 -3 102 0 102 7 0 11 -75 14 -329 11
l-113 -1 6 445 c4 303 3 446 -4 446 -5 0 -9 -3 -9 -7 1 -5 1 -149 0 -320 l-1
-313 -110 0 -110 0 0 340 0 340 115 0 115 0 -2 203 c-1 111 -4 169 -5 129 l-4
-73 -107 3 -107 3 -3 103 -3 102 116 0 115 0 0 375 0 375 113 2 112 2 -107 3
c-77 3 -108 7 -108 16 0 7 -2 189 -4 405 l-5 392 172 0 c95 0 249 3 344 7 145
5 172 9 176 22 3 14 -11 16 -111 16 l-115 0 2 105 c1 57 3 106 5 107 1 2 107
4 234 5 l232 3 0 118 0 117 114 0 c82 0 116 -4 119 -12 4 -10 6 -10 6 -1 1 10
235 13 1126 13 l1125 0 0 -115 0 -115 213 0 c306 -1 395 -8 435 -32 53 -33 80
-83 88 -165 l7 -73 128 0 129 0 0 -130 0 -130 143 0 c131 0 148 -2 188 -23 25
-14 59 -44 79 -72 31 -43 35 -58 38 -121 5 -81 7 -84 91 -84 94 0 153 -69 161
-190 l5 -75 116 -3 116 -3 6 -132 c4 -74 3 -135 -2 -140 -5 -5 -7 -15 -5 -22
4 -10 -16 -12 -88 -8 -51 3 -101 9 -111 15 -19 10 -257 10 -257 -1 0 -10 -174
-7 -182 4 -5 6 -18 0 -34 -16 -20 -21 -27 -39 -31 -88 l-6 -61 -56 -1 c-176
-2 -206 -4 -219 -19 -8 -8 -11 -9 -7 -2 5 10 -17 12 -102 11 -59 -1 -113 -6
-120 -11 -13 -11 -159 -6 -184 5 -10 5 -22 2 -33 -8 -12 -13 -16 -37 -16 -111
l0 -94 898 -2 c493 -2 924 -3 957 -3 33 0 63 -4 68 -10 4 -5 6 68 5 162 l-3
173 -28 27 c-23 24 -38 29 -100 33 l-72 5 3 90 c5 164 -15 187 -171 195 l-102
5 -5 107 c-5 101 -7 109 -33 135 -25 26 -35 28 -117 31 l-90 4 0 110 c0 108 0
110 -29 139 -29 29 -31 29 -145 29 l-116 0 0 106 0 106 -39 39 -39 39 -145 0
-145 0 -4 101 c-3 99 -3 101 -36 130 -32 28 -35 29 -146 29 l-113 0 -6 92 c-6
85 -8 94 -36 122 -30 29 -34 31 -136 34 -57 3 -116 1 -130 -2 -26 -7 -26 -7
-20 -84 3 -42 2 -71 -1 -64 -3 6 -10 10 -15 6 -5 -3 -9 12 -9 33 0 89 -49 113
-233 113 l-134 0 -5 85 c-4 77 -7 88 -33 115 -16 16 -42 32 -59 35 -17 3 -205
6 -419 8 l-387 2 0 -117 0 -118 -140 0 -140 0 0 84 c0 75 -3 88 -24 113 l-24
28 -519 5 -518 5 -33 25 c-30 22 -45 25 -138 28 l-104 4 -30 -30z m-1137
-1114 c-3 -35 -10 -71 -15 -81 -9 -17 -13 -14 -41 27 -27 39 -38 46 -75 52
l-42 6 37 29 c30 23 49 28 90 29 l53 0 -7 -62z m239 -62 l-3 -123 -86 -6 c-48
-3 -92 -3 -99 0 -9 3 -14 40 -16 129 l-3 124 105 0 105 0 -3 -124z m-4 -288
l3 -118 -101 0 -100 0 0 120 0 121 98 -3 97 -3 3 -117z m-462 96 c-3 -9 -6
-36 -6 -60 0 -48 -16 -59 -26 -19 -5 18 -17 28 -48 37 -53 15 -52 14 -31 38
24 26 121 30 111 4z m224 -44 c0 -72 -18 -81 -47 -22 -17 36 -20 37 -74 40
-47 2 -58 6 -62 22 -5 19 1 20 89 20 l94 0 0 -60z m245 -314 c4 -63 4 -119 1
-125 -5 -7 -46 -11 -107 -11 l-99 0 0 125 0 125 99 0 99 0 7 -114z m-485 75
c0 -35 -9 -61 -21 -61 -5 0 -9 7 -9 15 0 17 -23 29 -87 45 -73 18 -60 30 31
30 l86 0 0 -29z m248 -73 c0 -57 -2 -92 -5 -78 -4 22 -43 71 -43 55 0 -3 -5
-3 -10 0 -8 5 -8 11 0 20 20 24 0 47 -55 61 -5 2 -21 6 -34 10 -19 6 -22 4
-16 -7 7 -12 6 -12 -7 -1 -14 11 -16 2 -17 -85 -3 -138 -11 -130 -11 10 l0
117 99 0 99 0 0 -102z m2222 87 c0 -12 -19 -15 -110 -15 -91 0 -110 3 -110 15
0 12 19 15 110 15 91 0 110 -3 110 -15z m267 3 c-3 -9 -35 -13 -115 -13 -83 0
-112 3 -112 13 0 9 30 12 116 12 88 0 115 -3 111 -12z m-2574 -61 c-5 -8 -8
-7 -11 1 -2 7 -9 9 -14 6 -7 -4 -8 -2 -4 4 4 6 13 9 21 6 8 -4 12 -11 8 -17z
m-76 -9 c-3 -8 -6 -5 -6 6 -1 11 2 17 5 13 3 -3 4 -12 1 -19z m64 -31 c-10 -9
-11 -8 -5 6 3 10 9 15 12 12 3 -3 0 -11 -7 -18z m22 -167 l77 0 0 -95 0 -95
-100 0 -100 0 0 101 c0 100 0 101 23 95 12 -3 57 -6 100 -6z m317 -95 l0 -106
-107 3 -108 3 -3 103 -3 102 111 0 110 0 0 -105z m-483 50 c2 -28 0 -34 -6
-21 -5 14 -10 16 -15 8 -5 -9 -11 -8 -22 3 -14 13 -37 17 -111 18 -16 0 -23 6
-23 19 0 17 7 19 88 16 l87 -3 2 -40z m6108 -60 c4 -58 5 -108 3 -111 -3 -2
-18 0 -33 6 -16 6 -64 14 -107 17 l-78 6 0 93 0 94 104 0 104 0 7 -105z
m-6335 65 l0 -30 -32 15 c-18 8 -54 17 -80 20 -76 10 -56 25 32 25 l80 0 0
-30z m2420 20 c0 -9 -112 -17 -177 -12 -24 2 -43 8 -43 13 0 6 43 9 110 8 61
-1 110 -5 110 -9z m266 3 c-9 -9 -216 -11 -216 -2 0 5 47 9 111 8 61 0 108 -3
105 -6z m264 -4 c0 -12 -190 -12 -210 1 -10 6 22 9 98 9 63 0 112 -4 112 -10z
m323 -5 c-5 -14 -23 -16 -129 -12 -78 2 -128 8 -136 16 -9 9 19 12 130 12 126
0 141 -2 135 -16z m2020 -171 c-7 -2 -21 -2 -30 0 -10 3 -4 5 12 5 17 0 24 -2
18 -5z m-4862 -33 l39 0 0 -100 0 -100 -100 0 -100 0 0 106 0 107 61 -7 c34
-3 79 -6 100 -6z m279 -100 l0 -111 -107 3 -108 3 -3 108 -3 107 111 0 110 0
0 -110z m-480 48 c0 -49 -1 -51 -19 -34 -10 9 -25 16 -32 14 -8 -2 -13 4 -11
14 2 12 -7 19 -33 24 -19 3 -41 4 -49 1 -16 -7 -31 -82 -24 -127 3 -16 1 -30
-4 -30 -4 0 -8 43 -8 95 l0 95 90 0 90 0 0 -52z m-660 27 c0 -11 -12 -15 -45
-15 -33 0 -45 4 -45 15 0 11 12 15 45 15 33 0 45 -4 45 -15z m210 -210 c13 -8
13 -72 1 -80 -6 -3 -15 3 -21 14 -12 24 -72 42 -119 36 -28 -3 -31 -2 -20 12
8 8 22 19 34 24 20 9 108 5 125 -6z m449 -10 c2 -2 6 -45 9 -95 l5 -90 -97 0
-96 0 0 101 0 102 87 -7 c48 -4 89 -9 92 -11z m239 -87 l3 -98 -101 0 -100 0
0 100 0 101 98 -3 97 -3 3 -97z m-463 58 c-1 -47 -11 -54 -35 -23 -15 18 -33
27 -70 32 -81 11 -69 25 23 25 l83 0 -1 -34z m2389 -52 c13 -5 16 -23 16 -95
l0 -90 -112 3 -113 3 -3 79 c-2 44 -1 85 2 93 4 9 30 13 100 13 52 0 101 -3
110 -6z m290 0 c13 -5 16 -23 16 -95 l0 -89 -115 0 -115 0 0 95 0 95 99 0 c55
0 106 -3 115 -6z m264 -91 l3 -93 -114 0 -114 0 -6 87 c-3 49 -3 92 0 96 2 4
55 6 116 5 l112 -3 3 -92z m-3410 65 c-2 -18 -11 -24 -35 -26 -30 -3 -33 -1
-33 22 0 23 4 26 36 26 31 0 35 -3 32 -22z m2521 -22 c56 -52 72 -112 39 -153
-7 -9 -19 -5 -45 13 -20 13 -42 24 -50 24 -25 0 -113 91 -113 117 0 52 112 52
169 -1z m2099 -183 l3 -103 -140 0 -140 0 -4 73 -3 72 -2 -77 -2 -78 -120 0
-120 0 0 105 0 104 128 4 c70 1 188 3 262 2 l135 0 3 -102z m-3927 49 c1 -20
3 -61 5 -91 4 -47 2 -52 -11 -41 -8 7 -15 19 -15 27 0 8 -4 12 -8 9 -4 -3 -8
7 -8 22 1 15 -4 26 -10 25 -7 -1 -10 6 -7 18 4 12 0 25 -8 30 -20 13 -87 11
-95 -3 -4 -7 -3 -8 4 -4 7 4 12 2 12 -4 0 -6 -7 -13 -15 -16 -17 -7 -21 -25
-4 -21 6 1 13 -6 14 -16 2 -9 -1 -15 -6 -11 -5 3 -6 10 -3 16 4 6 3 8 -2 5 -6
-3 -11 -25 -13 -49 -4 -80 -11 -52 -11 48 l0 99 90 -3 90 -3 1 -37z m239 -57
l0 -105 -100 0 -100 0 0 105 0 105 100 0 100 0 0 -105z m238 -2 l-3 -108 -105
0 -105 0 -3 108 -3 107 111 0 111 0 -3 -107z m2904 2 l-3 -105 -125 0 -124 0
0 105 0 105 128 0 127 0 -3 -105z m-3877 85 c-20 -8 -20 -9 1 -9 11 -1 21 -8
21 -15 0 -11 -5 -12 -18 -5 -10 5 -28 9 -41 9 -13 0 -32 7 -42 15 -18 14 -15
15 40 14 42 0 53 -3 39 -9z m270 -21 c-6 -42 -12 -47 -33 -24 -16 18 -16 18 3
5 16 -11 18 -11 8 0 -7 7 -25 14 -40 16 -138 14 -152 34 -24 34 l90 0 -4 -31z
m4331 9 c4 -6 2 -14 -4 -16 -7 -2 -10 -8 -6 -13 3 -5 1 -9 -5 -9 -5 0 -13 5
-16 10 -3 6 -17 10 -31 10 -15 0 -24 6 -24 15 0 19 75 21 86 3z m-1933 -65
c-7 -2 -13 -10 -13 -17 0 -16 -132 -8 -174 10 -28 12 -20 13 84 13 63 0 109
-3 103 -6z m287 -13 c0 -17 -7 -20 -42 -20 -24 0 -71 6 -105 13 -55 12 -63 12
-66 -2 -3 -10 -5 -7 -6 7 -1 22 1 22 109 22 103 0 110 -1 110 -20z m225 9
c-50 -10 -132 -10 -165 1 -16 5 18 8 90 8 87 0 105 -2 75 -9z m-2717 -106
c-21 -2 -55 -2 -75 0 -21 2 -4 4 37 4 41 0 58 -2 38 -4z m-640 -75 c2 -28 -1
-38 -12 -38 -8 0 -16 5 -18 11 -2 6 -19 14 -38 18 -38 7 -53 36 -23 44 10 3
34 4 53 4 33 -2 35 -4 38 -39z m625 32 l57 0 0 -95 0 -95 -95 0 -95 0 0 101 0
102 38 -7 c20 -3 63 -6 95 -6z m285 -332 l2 -338 -100 0 -100 0 0 225 0 225
95 0 c61 0 95 4 95 11 0 7 -32 9 -95 7 l-95 -3 0 108 0 108 98 -3 97 -3 3
-337z m3369 59 c-4 -155 -7 -357 -7 -449 0 -145 -2 -167 -15 -162 -8 4 -16 18
-16 33 -2 22 -2 23 -6 4 -4 -19 -8 -21 -28 -13 -12 5 -26 6 -31 2 -4 -4 -4 -2
-1 4 5 8 -2 11 -17 10 -13 0 -22 -4 -19 -8 2 -5 0 -8 -6 -8 -5 0 -13 5 -17 12
-5 8 -10 6 -15 -8 -4 -10 -8 55 -10 146 -1 91 -4 251 -8 355 -5 172 -7 148
-13 -255 -5 -245 -8 -691 -8 -992 l0 -548 -22 -5 c-13 -3 -54 -6 -93 -8 -47
-2 -39 -3 23 -3 l92 1 0 -115 0 -116 270 4 270 4 0 -261 0 -261 -138 0 -139 0
-2 70 c-1 39 1 91 5 115 l6 45 129 0 c71 0 129 4 129 9 0 15 -49 22 -154 21
-55 -1 -158 -1 -228 -1 l-128 1 0 93 c0 82 -3 96 -25 130 -14 20 -30 38 -35
38 -6 1 -14 3 -20 4 -5 1 -51 3 -100 4 l-91 1 3 108 3 107 25 -2 c14 -1 18 0
8 3 -10 3 -18 10 -18 15 0 5 -9 9 -20 9 -20 0 -20 7 -20 1068 0 588 3 1072 6
1075 4 4 115 7 247 6 l240 0 -6 -282z m-4082 263 c-23 -4 -30 -8 -17 -9 13 0
21 -5 18 -10 -4 -5 0 -12 6 -15 7 -3 -5 -3 -27 1 -22 3 -58 13 -80 23 l-40 18
90 0 c68 -1 80 -3 50 -8z m255 -19 c0 -17 -4 -33 -10 -36 -5 -3 -10 -1 -10 4
0 6 -3 10 -7 9 -5 -1 -19 4 -33 10 -14 6 -46 14 -72 17 -79 10 -54 25 42 25
l90 0 0 -29z m6348 -748 l2 -773 35 0 c34 0 35 -1 35 -39 0 -37 -2 -40 -32
-43 l-33 -3 -3 -287 -2 -288 35 0 c34 0 35 -1 35 -40 0 -38 -2 -40 -30 -40
-29 0 -30 -1 -30 -51 l0 -50 45 7 45 6 0 -41 c0 -36 -2 -41 -22 -38 -22 2 -23
-2 -23 -58 0 -55 -2 -60 -22 -63 -19 -3 -23 -10 -23 -38 l0 -34 -215 0 -215 0
0 85 0 85 -31 0 c-28 0 -30 2 -27 33 3 28 6 32 31 29 27 -3 27 -3 27 63 l0 65
-30 0 c-28 0 -30 2 -30 40 0 38 2 40 30 40 l30 0 0 645 0 645 -30 0 c-27 0
-30 3 -30 30 0 27 3 30 30 30 27 0 30 3 30 30 0 27 -3 30 -30 30 -28 0 -30 3
-30 35 0 32 2 35 30 35 l30 0 0 365 0 365 208 -2 207 -3 3 -772z m-598 736 c0
-26 -3 -30 -22 -27 -17 2 -24 11 -26 31 -3 23 0 27 22 27 22 0 26 -4 26 -31z
m-5562 -189 l42 0 0 -95 0 -95 -95 0 -95 0 0 101 0 102 53 -7 c28 -3 71 -6 95
-6z m-188 -14 c0 -25 -22 -27 -167 -14 -7 1 -13 7 -13 15 0 10 22 13 90 13 70
0 90 -3 90 -14z m-257 -223 c-24 -2 -62 -2 -85 0 -24 2 -5 4 42 4 47 0 66 -2
43 -4z m267 -19 c0 -26 0 -26 -57 -18 -32 5 -75 8 -95 9 -29 0 -38 4 -38 18 0
15 11 17 95 17 l95 0 0 -26z m220 -74 l0 -100 -95 0 -95 0 0 100 0 100 95 0
95 0 0 -100z m6185 90 c3 -6 -1 -7 -9 -4 -18 7 -21 14 -7 14 6 0 13 -4 16 -10z
m-2 -27 c-7 -2 -21 -2 -30 0 -10 3 -4 5 12 5 17 0 24 -2 18 -5z m-5953 -309
l0 -104 -100 0 -100 0 0 108 0 107 100 -3 100 -3 0 -105z m238 4 l3 -108 -64
0 c-35 0 -85 -3 -111 -6 l-46 -7 0 117 0 117 108 -3 107 -3 3 -107z m-469 15
c-1 -59 -4 -76 -8 -51 -8 49 -44 76 -114 84 l-56 7 -4 -64 c-3 -57 -3 -54 -5
24 l-2 87 95 0 95 0 -1 -87z m5541 17 c0 -25 -4 -30 -24 -30 -14 0 -25 7 -28
18 -8 28 2 42 28 42 20 0 24 -5 24 -30z m-3640 -85 l0 -55 -105 0 -105 0 0 51
0 51 48 -6 c26 -3 61 -5 77 -4 17 0 40 1 53 2 12 1 22 4 22 9 0 4 2 7 5 7 3 0
5 -25 5 -55z m292 5 c4 -19 7 -54 7 -77 1 -23 6 -45 11 -48 6 -4 10 16 10 52
0 106 -4 103 121 103 l108 0 5 -42 c3 -24 8 -96 10 -160 l5 -117 -265 -3 -264
-3 0 165 0 165 122 0 123 0 7 -35z m444 -23 c17 -9 31 -23 31 -31 0 -13 -15
-16 -89 -16 l-88 0 0 49 0 49 58 -17 c31 -10 71 -25 88 -34z m-2753 -34 c-13
-2 -35 -2 -50 0 -16 2 -5 4 22 4 28 0 40 -2 28 -4z m85 0 c-10 -2 -28 -2 -40
0 -13 2 -5 4 17 4 22 1 32 -1 23 -4z m2720 -29 c21 -6 22 -11 22 -110 l0 -105
-112 3 -113 3 -3 94 c-1 52 -1 100 2 108 4 9 29 13 93 13 48 0 98 -3 111 -6z
m-2700 -14 c1 0 2 -11 2 -24 0 -24 -34 -43 -46 -25 -3 5 -27 9 -54 9 -62 0
-80 7 -80 32 0 19 5 19 88 14 48 -3 88 -5 90 -6z m242 -95 l0 -105 -100 0
-100 0 0 105 0 105 100 0 100 0 0 -105z m230 0 l0 -105 -105 0 -105 0 0 105 0
105 105 0 105 0 0 -105z m240 -5 l0 -110 -110 0 -110 0 0 110 0 110 110 0 110
0 0 -110z m4850 -20 c0 -39 1 -40 35 -40 32 0 35 -2 35 -29 0 -27 -3 -30 -37
-33 -38 -3 -38 -3 -41 -50 -3 -43 -5 -48 -28 -48 -22 0 -24 4 -24 49 l0 48
-37 -1 c-36 -1 -38 1 -41 32 -3 31 -2 32 37 32 40 0 41 1 41 33 0 40 6 47 37
47 20 0 23 -5 23 -40z m-5329 -185 c1 -41 2 -86 3 -101 l1 -25 -98 -2 -97 -2
0 103 0 102 95 0 95 0 1 -75z m239 -35 l0 -111 -102 3 -103 3 -3 108 -3 107
106 0 105 0 0 -110z m240 0 l0 -110 -110 0 -110 0 0 110 0 110 110 0 110 0 0
-110z m-559 -150 l79 0 -1 -92 c-1 -65 -3 -82 -8 -57 -7 34 -34 83 -42 75 -2
-2 -10 2 -17 10 -10 11 -10 14 0 16 7 1 -14 4 -47 7 l-60 6 -6 -85 -5 -85 -2
109 c-2 95 0 107 14 102 9 -3 51 -6 95 -6z m319 -95 l0 -105 -99 0 -100 0 -3
101 c-2 55 -1 103 1 105 2 2 49 4 103 4 l98 0 0 -105z m235 -5 l0 -105 -105 0
-105 0 -3 108 -3 108 108 -3 108 -3 0 -105z m223 102 c9 -6 12 -35 10 -108
l-3 -99 -105 0 -105 0 -3 108 -3 107 98 0 c54 0 104 -4 111 -8z m242 -102 l0
-110 -110 0 -110 0 0 110 0 110 110 0 110 0 0 -110z m480 5 l0 -105 -104 0
-103 0 -7 53 c-3 28 -6 76 -6 105 l0 52 110 0 110 0 0 -105z m1273 98 c-23 -2
-64 -2 -90 0 -26 2 -7 3 42 3 50 0 71 -1 48 -3z m-2923 -30 c0 -16 -4 -23 -8
-18 -4 6 -35 11 -70 12 -35 1 -69 6 -76 12 -7 6 -16 8 -19 4 -4 -3 -7 -1 -7 5
0 8 28 12 90 12 l90 0 0 -27z m2893 10 c-7 -2 -19 -2 -25 0 -7 3 -2 5 12 5 14
0 19 -2 13 -5z m-1558 -56 c4 -19 5 -47 3 -63 -3 -27 -6 -29 -50 -32 l-48 -3
0 65 0 66 45 0 c42 0 44 -1 50 -33z m-2035 -77 c0 -29 -1 -30 -50 -30 -49 0
-50 1 -50 30 0 29 1 30 50 30 49 0 50 -1 50 -30z m6308 -48 c3 -17 -2 -22 -17
-22 -14 0 -21 6 -21 18 0 38 33 41 38 4z m-5400 -48 c17 -5 22 -13 21 -38 -1
-17 -3 -23 -6 -13 -3 13 -15 17 -49 17 -25 0 -60 9 -81 20 l-38 20 65 0 c36 0
75 -3 88 -6z m262 -99 l0 -105 -100 0 -100 0 0 105 0 105 100 0 100 0 0 -105z
m238 -2 l-3 -108 -102 -3 -103 -3 0 111 0 110 105 0 106 0 -3 -107z m222 -128
l0 -235 -102 0 -103 0 0 235 0 235 103 0 102 0 0 -235z m240 125 l0 -110 -104
0 -105 0 -3 110 -3 110 108 0 107 0 0 -110z m240 5 l0 -105 -105 0 -105 0 0
105 0 105 105 0 105 0 0 -105z m108 98 c-10 -2 -28 -2 -40 0 -13 2 -5 4 17 4
22 1 32 -1 23 -4z m2522 -250 c0 -18 -6 -23 -25 -23 -19 0 -25 5 -25 23 0 17
6 22 25 22 19 0 25 -5 25 -22z m-3810 -24 c0 -11 -4 -18 -9 -15 -5 4 -11 1
-13 -5 -3 -9 -10 -9 -23 -2 -19 10 -122 29 -137 25 -5 -1 -8 4 -8 11 0 9 24
11 95 9 87 -3 95 -5 95 -23z m224 25 c13 -5 16 -24 14 -113 -1 -77 -3 -88 -5
-40 -3 58 -7 68 -24 72 -12 3 -18 10 -14 17 3 6 3 10 -2 8 -4 -1 -26 4 -48 10
-22 7 -52 12 -67 12 -26 0 -27 -2 -31 -62 -3 -58 -3 -57 -5 20 l-2 82 84 0
c46 0 91 -3 100 -6z m256 -104 l0 -110 -32 -1 c-18 0 -66 -2 -105 -4 l-73 -4
0 114 0 115 105 0 105 0 0 -110z m460 0 c0 -60 -3 -110 -7 -110 -5 -1 -41 -3
-81 -6 -40 -3 -84 -3 -97 0 -25 6 -25 8 -25 116 l0 110 105 0 105 0 0 -110z
m1280 100 c0 -11 -24 -13 -115 -9 -33 1 -68 2 -77 3 -10 0 -18 4 -18 8 0 4 47
8 105 8 63 0 105 -4 105 -10z m258 0 c6 0 12 -3 12 -7 0 -5 -24 -8 -53 -8
-120 1 -167 6 -167 15 0 7 35 9 98 5 53 -2 103 -5 110 -5z m-615 -17 c-18 -2
-48 -2 -65 0 -18 2 -4 4 32 4 36 0 50 -2 33 -4z m-2793 -48 l0 -45 -45 0 -45
0 0 45 0 45 45 0 45 0 0 -45z m1528 -192 c-16 -2 -40 -2 -55 0 -16 2 -3 4 27
4 30 0 43 -2 28 -4z m79 1 c-3 -3 -12 -4 -19 -1 -8 3 -5 6 6 6 11 1 17 -2 13
-5z m1253 -9 c0 -16 -101 -17 -150 -1 l-45 14 98 -1 c57 -1 97 -6 97 -12z
m261 8 c28 -5 30 -7 14 -14 -43 -17 -195 -7 -195 12 0 10 132 12 181 2z m273
-2 c9 -14 -21 -21 -94 -21 -71 0 -100 6 -100 21 0 12 187 12 194 0z m-2283 -8
c-25 -3 -31 -7 -20 -13 9 -6 -1 -7 -26 -3 -80 12 -80 22 0 21 44 -1 65 -3 46
-5z m730 0 c-19 -4 -21 -7 -10 -14 9 -5 -14 -9 -63 -9 -42 0 -80 5 -83 10 -4
6 -11 8 -16 5 -5 -4 -9 -1 -9 4 0 7 36 11 103 10 56 -1 91 -4 78 -6z m2567
-31 c3 -16 -2 -22 -17 -22 -26 0 -36 17 -20 36 16 19 33 13 37 -14z m579 -141
c2 -10 16 -24 29 -30 31 -14 31 -27 -1 -35 -16 -4 -25 -13 -25 -26 0 -24 -11
-31 -38 -23 -14 3 -22 13 -22 28 0 18 -4 21 -25 17 -21 -4 -25 -1 -25 21 0 18
7 26 25 31 14 4 25 13 25 21 0 23 51 19 57 -4z m-4837 -60 c0 -22 -5 -30 -24
-33 -21 -4 -25 -1 -28 29 -4 30 -2 33 24 33 24 0 28 -4 28 -29z m1719 -117 l2
-104 -106 0 -105 0 0 108 0 107 104 -3 104 -3 1 -105z m2131 101 c0 -12 -16
-15 -81 -15 -58 0 -85 4 -95 15 -14 13 -5 15 80 15 79 0 96 -3 96 -15z m-2435
-2 c-32 -2 -64 -8 -70 -13 -7 -6 -15 -6 -21 -1 -5 5 -18 11 -29 14 -11 3 25 4
80 4 61 0 77 -2 40 -4z m5415 -208 c0 -20 -5 -25 -25 -25 -33 0 -35 37 -2 43
12 2 23 5 25 6 1 0 2 -10 2 -24z m-372 -87 c-5 -34 -38 -37 -38 -4 0 20 5 26
21 26 15 0 20 -5 17 -22z m-1678 -73 c0 -20 -5 -25 -25 -25 -20 0 -25 5 -25
25 0 20 5 25 25 25 20 0 25 -5 25 -25z m692 -82 l3 -38 700 -2 c385 -2 704 -4
709 -6 6 -2 12 -50 14 -108 l4 -104 -793 2 c-437 1 -869 2 -961 2 l-168 1 -2
33 -1 32 -4 -32 -4 -33 -115 0 -114 0 -2 88 -2 87 -3 -86 c-4 -102 0 -99 -135
-99 l-88 0 -2 43 c-1 23 -2 72 -4 110 l-2 67 332 0 c182 0 388 3 459 7 l127 6
0 34 c0 28 3 33 24 33 21 0 25 -5 28 -37z m-1562 -148 l0 -105 -112 0 -113 0
0 105 0 105 113 0 112 0 0 -105z m2500 -892 l0 -78 -105 3 -105 3 0 52 c0 29
4 57 8 63 4 7 50 16 102 21 52 6 96 11 98 12 1 0 2 -34 2 -76z m-232 -15 l3
-58 -101 0 -100 0 0 54 c0 54 0 55 33 59 17 2 61 4 97 3 l65 -1 3 -57z m-228
-13 l0 -45 -110 0 -110 0 0 34 c0 31 3 34 35 40 19 4 66 4 105 0 49 -4 70 -3
70 5 0 6 2 11 5 11 3 0 5 -20 5 -45z"/>
<path d="M998 5233 c6 -2 12 -16 12 -29 0 -17 -4 -23 -12 -18 -10 6 -10 4 0
-7 6 -7 12 -27 12 -45 0 -18 -6 -35 -12 -37 -7 -3 24 -6 70 -6 47 -1 81 3 78
8 -3 5 -15 7 -25 4 -10 -3 -22 0 -25 6 -4 6 0 11 8 11 9 0 16 5 16 10 0 6 -4
10 -10 10 -5 0 -6 7 -3 17 4 10 2 14 -4 10 -7 -5 -10 3 -8 20 4 40 -11 53 -64
52 -25 0 -40 -3 -33 -6z"/>
<path d="M1100 5189 c0 -5 5 -7 10 -4 6 3 10 8 10 11 0 2 -4 4 -10 4 -5 0 -10
-5 -10 -11z"/>
<path d="M4553 4690 c0 -25 2 -35 4 -22 2 12 2 32 0 45 -2 12 -4 2 -4 -23z"/>
<path d="M1070 4286 c0 -2 7 -6 15 -10 8 -3 15 -1 15 4 0 6 -7 10 -15 10 -8 0
-15 -2 -15 -4z"/>
<path d="M1260 3551 c0 -5 8 -7 19 -4 17 4 38 -23 26 -35 -3 -3 -5 0 -5 6 0 7
-5 12 -11 12 -8 0 -9 -4 0 -13 6 -8 8 -17 4 -21 -4 -4 0 -4 10 0 11 4 17 17
17 35 0 26 -4 29 -30 29 -16 0 -30 -4 -30 -9z"/>
<path d="M1508 3036 c4 -6 7 -14 7 -18 0 -5 3 -8 8 -8 4 0 10 0 13 0 4 0 1 6
-5 13 -6 8 -9 16 -6 19 3 2 -2 5 -10 5 -8 0 -11 -5 -7 -11z"/>
<path d="M2223 2245 c0 -8 4 -12 9 -9 5 3 6 10 3 15 -9 13 -12 11 -12 -6z"/>
<path d="M5821 1664 c0 -11 3 -14 6 -6 3 7 2 16 -1 19 -3 4 -6 -2 -5 -13z"/>
<path d="M4381 1764 c0 -11 3 -14 6 -6 3 7 2 16 -1 19 -3 4 -6 -2 -5 -13z"/>
<path d="M1861 6824 c0 -11 3 -14 6 -6 3 7 2 16 -1 19 -3 4 -6 -2 -5 -13z"/>
<path d="M1862 6770 c0 -14 2 -19 5 -12 2 6 2 18 0 25 -3 6 -5 1 -5 -13z"/>
<path d="M1861 6724 c0 -11 3 -14 6 -6 3 7 2 16 -1 19 -3 4 -6 -2 -5 -13z"/>
<path d="M1861 6684 c0 -11 3 -14 6 -6 3 7 2 16 -1 19 -3 4 -6 -2 -5 -13z"/>
<path d="M1655 6600 c3 -6 50 -10 105 -10 55 0 102 4 105 10 4 6 -33 10 -105
10 -72 0 -109 -4 -105 -10z"/>
<path d="M4863 6303 c37 -2 97 -2 135 0 37 2 6 3 -68 3 -74 0 -105 -1 -67 -3z"/>
<path d="M1688 5293 c7 -3 16 -2 19 1 4 3 -2 6 -13 5 -11 0 -14 -3 -6 -6z"/>
<path d="M1778 5293 c7 -3 16 -2 19 1 4 3 -2 6 -13 5 -11 0 -14 -3 -6 -6z"/>
<path d="M5092 5155 c0 -16 2 -22 5 -12 2 9 2 23 0 30 -3 6 -5 -1 -5 -18z"/>
<path d="M1698 4113 c7 -3 16 -2 19 1 4 3 -2 6 -13 5 -11 0 -14 -3 -6 -6z"/>
</g>
</svg>
