<?xml version="1.0" encoding="UTF-8" standalone="no"?>
<svg
   xmlns:dc="http://purl.org/dc/elements/1.1/"
   xmlns:cc="http://creativecommons.org/ns#"
   xmlns:rdf="http://www.w3.org/1999/02/22-rdf-syntax-ns#"
   xmlns:svg="http://www.w3.org/2000/svg"
   xmlns="http://www.w3.org/2000/svg"
   version="1.1"
   id="svg2"
   viewBox="426.896 102.499 170.207 200"
   height="2500"
   width="2128">
  <metadata
     id="metadata12">
    <rdf:RDF>
      <cc:Work
         rdf:about="">
        <dc:format>image/svg+xml</dc:format>
        <dc:type
           rdf:resource="http://purl.org/dc/dcmitype/StillImage" />
        <dc:title></dc:title>
      </cc:Work>
    </rdf:RDF>
  </metadata>
  <defs
     id="defs10" />
  <path
     style="fill:#828282;fill-opacity:1"
     id="path4"
     fill="#828282"
     d="M442.394 142c-1.736 0-3.197.61-3.934 1.803-.76 1.231-.645 2.818.166 4.424l19.503 33.761c.033.064.033.105 0 .164l-30.648 54.084c-.799 1.592-.76 3.191 0 4.425.736 1.187 2.033 1.966 3.771 1.966h28.844c4.312 0 6.393-2.91 7.867-5.57 0 0 29.973-53.01 31.14-55.068-.118-.19-19.83-34.58-19.83-34.58-1.439-2.557-3.606-5.41-8.03-5.41h-28.849z" />
  <path
     style="fill:#828282;fill-opacity:1"
     id="path6"
     fill="#828282"
     d="M563.574 102.501c-4.309 0-6.176 2.714-7.723 5.494 0 0-62.14 110.2-64.188 113.818.105.196 40.984 75.191 40.984 75.191 1.432 2.558 3.641 5.494 8.06 5.494h28.81c1.738 0 3.096-.654 3.828-1.843.77-1.23.748-2.857-.059-4.458l-40.664-74.295a.167.167 0 0 1 0-.189l63.863-112.92c.803-1.594.82-3.22.061-4.452-.736-1.188-2.098-1.843-3.836-1.843h-29.139v.002h.003z" />
</svg>
